<?xml version="1.0" encoding="iso-8859-1"?>
<!-- Generator: Adobe Illustrator 16.0.0, SVG Export Plug-In . SVG Version: 6.00 Build 0)  -->
<!DOCTYPE svg PUBLIC "-//W3C//DTD SVG 1.1//EN" "http://www.w3.org/Graphics/SVG/1.1/DTD/svg11.dtd">
<svg version="1.1" id="Capa_1" xmlns="http://www.w3.org/2000/svg" xmlns:xlink="http://www.w3.org/1999/xlink" x="0px" y="0px"
	 width="31.623px" height="31.623px" viewBox="0 0 31.623 31.623" style="enable-background:new 0 0 31.623 31.623;"
	 xml:space="preserve">
<g>
	<g>
		<path d="M23.662,14.012V9.626c0,0-3.957-2.094-7.887-2.094c-3.931,0-7.766,2.154-7.766,2.154v3.53
			c-1.127,2.128-1.07,4.286-1.07,4.286l0.667,10.891l-0.335,3.23h8.28l-2.433-4.613l0.722-0.18v-2.745
			c-2.781-0.872-4.832-3.351-5.062-6.356l1.906,0.272v1.165h5.002v-0.824h0.881v0.824h5v-1.135l1.59-0.247
			c-0.09,2.518-1.392,5.887-5.254,6.388v2.562h0.012l0.92,0.438l-2.473,4.451h4.762c0.017-0.102,0.033-0.199,0.051-0.301
			l0.042,0.301h3.142l-0.494-4.458c0.16-1.185,0.703-3.041,0.782-4.896c0.071-1.637,0.151-5.205-1.036-8.279
			C23.644,14.003,23.662,14.012,23.662,14.012z M15.13,18.609h-3.888v-1.979h3.888V18.609z M21.013,18.609h-3.89v-1.979h3.89V18.609
			z M21.568,17.188v-1.112h-5v1.159h-0.881v-1.159h-5.002v1.085l-1.929-0.278c0.015-0.14,0.035-0.278,0.049-0.423
			c2.011-0.135,4.281-1.721,4.459-3.925c2.541,2.106,6.146,2.209,9.149,2.479c0.373,0.174,0.649,0.93,0.729,1.932L21.568,17.188z"/>
		<path d="M28.054,8.656l1.558-0.837l-1.558-0.862V6.549c0,0,0.438-2.222-2.052-1.06c-0.127,0.068-0.194,0.139-0.223,0.206L15.508,0
			L2.012,7.724l5.097,2.315V9.287c0,0,4.276-2.401,8.661-2.401c4.383,0,8.793,2.334,8.793,2.334v1.313l2.812-1.511
			c0,1.751,0,5.494,0,6.119h-0.936v2.173l1.245-0.859l1.382,0.859v-2.173h-1.013V8.656z M27.375,6.172c0,0.052,0,0.196,0,0.409
			l-0.821-0.455C26.854,5.926,27.375,5.652,27.375,6.172z M27.098,8.571c-0.363,0-0.658-0.295-0.658-0.657
			c0-0.364,0.295-0.659,0.658-0.659s0.657,0.295,0.657,0.659C27.755,8.276,27.461,8.571,27.098,8.571z"/>
	</g>
</g>
<g>
</g>
<g>
</g>
<g>
</g>
<g>
</g>
<g>
</g>
<g>
</g>
<g>
</g>
<g>
</g>
<g>
</g>
<g>
</g>
<g>
</g>
<g>
</g>
<g>
</g>
<g>
</g>
<g>
</g>
</svg>
