<?xml version="1.0" encoding="iso-8859-1"?>
<!-- Generator: Adobe Illustrator 16.0.0, SVG Export Plug-In . SVG Version: 6.00 Build 0)  -->
<!DOCTYPE svg PUBLIC "-//W3C//DTD SVG 1.1//EN" "http://www.w3.org/Graphics/SVG/1.1/DTD/svg11.dtd">
<svg version="1.1" id="Capa_1" xmlns="http://www.w3.org/2000/svg" xmlns:xlink="http://www.w3.org/1999/xlink" x="0px" y="0px"
	 width="466.971px" height="466.971px" viewBox="0 0 466.971 466.971" style="enable-background:new 0 0 466.971 466.971;"
	 xml:space="preserve">
<g>
	<path d="M440.62,466.969l26.35-26.35v-55.387h-5.834V81.736h5.834V26.35L440.62,0h-55.385v5.834h-303.5V0H26.351L0.001,26.35
		v55.386h5.834v303.499H0.001v55.385l26.35,26.352h55.386v-5.834h303.499v5.834h55.385V466.969z M306.765,231.386l-17.354,11.621
		c-7.997,25.903-34.752,55.629-55.926,58.556c-21.174-2.927-47.93-32.652-55.927-58.556l-17.353-11.621l-0.162-21.87l9.584,2.904
		v-12.692l82.772-35.961l44.945,35.961v12.692l9.584-2.904L306.765,231.386z M342.19,416.832l-7.912-56.469h20.748l-12.975-44.815
		c0,0-6.549-79.367-8.492-109.64c-5.459-84.937-44.072-118.899-98.697-120.719h-2.756c-54.625,1.82-93.238,35.782-98.698,120.719
		c-2.088,32.575-9.663,109.784-9.663,109.784l-11.804,44.672h25.413l-9.576,56.469H50.138V50.138h366.693V416.83H342.19V416.832z"/>
</g>
<g>
</g>
<g>
</g>
<g>
</g>
<g>
</g>
<g>
</g>
<g>
</g>
<g>
</g>
<g>
</g>
<g>
</g>
<g>
</g>
<g>
</g>
<g>
</g>
<g>
</g>
<g>
</g>
<g>
</g>
</svg>
